<?xml version="1.0" encoding="utf-8"?>
<!-- Generator: Adobe Illustrator 15.0.0, SVG Export Plug-In . SVG Version: 6.00 Build 0)  -->
<!DOCTYPE svg PUBLIC "-//W3C//DTD SVG 1.1//EN" "http://www.w3.org/Graphics/SVG/1.1/DTD/svg11.dtd">
<svg version="1.1" xmlns="http://www.w3.org/2000/svg" xmlns:xlink="http://www.w3.org/1999/xlink" x="0px" y="0px" width="1280px"
	 height="800px" viewBox="0 0 1280 800" enable-background="new 0 0 1280 800" xml:space="preserve">
<g id="Calque_2">
	<path fill="#FF2B06" d="M655.725,407.27c-0.412,0.432-1.587,1.633-3.228,1.674c-1.641,0.039-15.806-0.01-16.824-0.024
		c-1.018-0.017-2.01-0.919-2.506-1.37c-0.496-0.452-1.376-1.658-1.372-2.739c0.004-1.08-0.035-15.241,0-16.386
		c0.036-1.144,0.681-2.144,1.222-2.737c0.549-0.602,1.873-1.559,3.238-1.576c0.973-0.013,14.195-0.033,16.115-0.003
		c1.922,0.029,3.347,1.703,3.567,2.006c0.218,0.303,0.798,1.356,0.824,2.292c0.026,0.937,0.022,15.588,0,16.365
		C656.739,405.55,656.136,406.837,655.725,407.27z"/>
</g>
<g id="Calque_1">
	<g>
		<path fill-rule="evenodd" clip-rule="evenodd" fill="#FFFFFF" d="M648.423,387.551c-0.009,1.028,0.016,2.088-0.013,3.096
			c-0.957,0.103-2.309-0.286-2.649,0.434c-0.141,0.295-0.101,0.715-0.101,1.139c0,0.404-0.023,0.819-0.012,1.214
			c0.929,0,1.857,0,2.786,0c-0.104,1.034-0.221,2.057-0.321,3.095c-0.822,0-1.643,0-2.465,0c0,2.997,0,5.994,0,8.99
			c-1.226,0-2.451,0-3.678,0c0-2.992,0-5.985,0-8.978c-0.591-0.029-1.233-0.004-1.845-0.013c0-1.032,0-2.064,0-3.095
			c0.611,0,1.222,0,1.833,0c0-1.654-0.069-3.27,0.52-4.297c0.614-1.072,1.656-1.512,3.232-1.585
			C646.59,387.509,647.523,387.545,648.423,387.551z"/>
	</g>
</g>
</svg>
