<?xml version="1.0" encoding="utf-8"?>
<!-- Generator: Adobe Illustrator 15.0.0, SVG Export Plug-In . SVG Version: 6.00 Build 0)  -->
<!DOCTYPE svg PUBLIC "-//W3C//DTD SVG 1.1//EN" "http://www.w3.org/Graphics/SVG/1.1/DTD/svg11.dtd">
<svg version="1.1" xmlns="http://www.w3.org/2000/svg" xmlns:xlink="http://www.w3.org/1999/xlink" x="0px" y="0px" width="1280px"
	 height="800px" viewBox="0 0 1280 800" enable-background="new 0 0 1280 800" xml:space="preserve">
<g id="Calque_1" display="none">
	<g display="inline">
		<path fill-rule="evenodd" clip-rule="evenodd" fill="#FFFFFF" d="M550.64,272c-22.153,3.607-35.033,16.487-38.64,38.64
			c0-12.88,0-25.76,0-38.64C524.88,272,537.76,272,550.64,272z"/>
		<path fill-rule="evenodd" clip-rule="evenodd" fill="#FFFFFF" d="M768.08,311.6c-3.235-22.845-16.317-35.842-38.64-39.6
			c12.88,0,25.76,0,38.64,0C768.08,285.2,768.08,298.4,768.08,311.6z"/>
		<path fill-rule="evenodd" clip-rule="evenodd" fill="#9E9E9E" d="M551.36,280.16c58.559-0.4,118.801-0.4,177.36,0
			C669.599,280.16,610.481,280.16,551.36,280.16z"/>
		<path fill-rule="evenodd" clip-rule="evenodd" fill="#FFFFFF" d="M532.88,287.6c5.04-3.6,10.627-6.653,18.48-7.44
			c59.121,0,118.238,0,177.36,0c8.106,0.854,13.857,4.062,18.96,7.92c1.078,1.563,3.513,3.045,3.84,4.56
			c-2.329-0.366-5.714,0.482-8.4,0c-1.644-0.295-3.053-1.533-4.56-2.16c-4.928-2.05-10.724-2.64-17.521-2.64
			c-44.366,0-90.191,0-134.64,0c-17.588,0-36.488-2.249-49.2,4.8c-2.8,0-5.6,0-8.4,0C528.346,291.042,531.815,289.273,532.88,287.6z
			"/>
		<path fill-rule="evenodd" clip-rule="evenodd" fill="#9E9E9E" d="M724.881,391.04c1.6,0,3.199,0,4.8,0
			C728.635,391.439,725.926,391.439,724.881,391.04z"/>
		<path fill-rule="evenodd" clip-rule="evenodd" fill="#9E9E9E" d="M601.28,406.16c-0.649,0.398-2.951,0.398-3.6,0
			C598.88,406.16,600.08,406.16,601.28,406.16z"/>
		<path fill-rule="evenodd" clip-rule="evenodd" fill="#9E9E9E" d="M613.52,464c0.96,0,1.92,0,2.88,0
			C615.986,464.398,613.934,464.398,613.52,464z"/>
		<path fill-rule="evenodd" clip-rule="evenodd" fill="#FFFFFF" d="M728.961,528.08c22.546-3.533,35.586-16.573,39.119-39.12
			c0,13.041,0,26.08,0,39.12C755.04,528.08,742,528.08,728.961,528.08z"/>
		<path fill-rule="evenodd" clip-rule="evenodd" fill="#FFFFFF" d="M512,489.681c3.8,22.04,16.709,34.971,39.12,38.399
			c-13.04,0-26.08,0-39.12,0C512,515.28,512,502.48,512,489.681z"/>
		<path fill-rule="evenodd" clip-rule="evenodd" fill="#929292" d="M529.28,508.881c3.902-0.302,9.914-0.636,13.44,0.239
			C538.854,509.387,532.756,509.805,529.28,508.881z"/>
		<path fill-rule="evenodd" clip-rule="evenodd" fill="#929292" d="M750.561,508.641c-3.026,1.613-8.992,0.288-13.2,0.72
			c0.007-0.233,0.294-0.187,0.48-0.24C741.155,508.035,746.455,508.935,750.561,508.641z"/>
		<path fill-rule="evenodd" clip-rule="evenodd" fill="#929292" d="M530.24,509.841c4.317-0.317,10.692-0.613,14.64,0.239
			C540.617,510.343,534.111,510.771,530.24,509.841z"/>
		<path fill-rule="evenodd" clip-rule="evenodd" fill="#929292" d="M749.601,509.601c-3.225,1.628-9.834,0.277-14.4,0.72
			C738.695,508.775,744.944,509.984,749.601,509.601z"/>
		<path fill-rule="evenodd" clip-rule="evenodd" fill="#929292" d="M747.44,511.28c0.155,0.669-0.82,1.382-1.2,1.681
			c-4.476,3.518-10.934,6.104-18.479,6.72c-8.777,0.717-19.063,0.24-28.801,0.24c-38.692,0-77.105,0-116.16,0
			c-10.482,0-19.921,0.364-29.04,0c-9.471-0.379-16.162-4.043-21.6-8.4c-0.044-0.204,0.093-0.227,0.24-0.24
			C602.692,512.43,677.149,512.438,747.44,511.28z"/>
		<path fill-rule="evenodd" clip-rule="evenodd" fill="#FFFFFF" d="M543.68,434.24c-2.667-2.933-5.086-6.114-7.68-9.12
			c7.722,6.474,18.157,12.884,32.16,13.681c18.283,1.039,32.092-6.652,40.8-15.841c-6.63,0.529-13.71-1.967-13.92-7.92
			c-0.158-4.474,3.697-6.973,7.44-8.64c0.041-0.521-0.851-0.108-1.2-0.24c-1.2,0-2.4,0-3.6,0c-9.59-0.649-15.124-5.355-18.96-11.76
			c2.629-3.531,7.162-5.158,12.96-5.52c-10.649-3.031-19.267-8.093-21.6-19.44c3.167-1.393,7.392-1.728,11.76-1.92
			c-8.313-5.047-16.542-11.459-16.32-24.24c1.515-0.296,2.937,0.679,4.32,1.2c10.274,3.872,20.881,8.297,30.72,12.96
			c11.408,5.406,22.728,10.764,30.48,19.68c4.592-12.608,10.022-24.377,17.04-34.56c1.682-1.838,3.26-3.781,4.8-5.76
			c0.901-0.7,1.701-1.5,2.4-2.4c0.977-0.463,1.548-1.332,2.4-1.92c1.186-1.054,2.582-1.897,3.84-2.88
			c0.656,0.518-0.083,1.662-0.24,2.16c-0.375,0.745-0.712,1.528-1.2,2.16c0.781,0.214,1.903-1.292,2.88-1.68
			c3.007-2.113,6.876-3.365,11.04-4.32c0.761,1.646-1.116,2.72-1.68,3.84c-1.233,0.686-2.204,1.635-3.6,2.16
			c1.753-0.089,4.326-1.431,6.479-1.92c2.343-0.536,6.063-1.726,7.92,0c0.603,5.184-6.07,5.113-9.84,6.72
			c-2.163,0.236-3.734,1.065-5.52,1.68c-0.214,0.186-0.542,0.258-0.96,0.24c1.123,0.556,3.277,0.083,4.8,0.24
			c0.239,0,0.479,0,0.72,0c20.88,3.76,32.192,17.088,36.72,37.2c7.257,2.767,17.54,0.344,23.28-2.16
			c-3.512,7.688-10.848,11.552-21.12,12.48c3.678,1.762,8.36,2.52,13.681,2.64c1.045,0.399,3.754,0.399,4.8,0
			c1.106-0.013,2.346,0.106,3.12-0.24c0.315,0.652-0.685,1.467-1.2,1.92c-4.776,4.2-12.468,6.978-21.601,6.96
			c-5.379,19.379-16.998,33.983-32.16,44.64c-15.688,11.027-35.609,19.23-61.439,19.68c-0.96,0-1.92,0-2.88,0
			c-29.813-0.668-49.698-11.261-65.76-25.68C546.5,436.86,545.14,435.5,543.68,434.24z"/>
		<path fill-rule="evenodd" clip-rule="evenodd" fill="#9E9E9E" d="M543.68,434.24c1.46,1.26,2.82,2.62,4.08,4.08
			C546.3,437.061,544.94,435.7,543.68,434.24z"/>
		<path fill-rule="evenodd" clip-rule="evenodd" fill="#9E9E9E" d="M747.681,288.08c7.667,6.733,13.161,15.638,12.24,30.96
			c-0.372-0.588-0.358-1.562-0.48-2.4c-0.988-4.692-2.647-8.712-4.8-12.24c-76.319,0-152.644,0-228.96,0
			c-2.626,2.974-3.846,7.354-5.04,11.76c-0.071,0.809-0.121,1.639-0.48,2.16c0-0.24,0-0.48,0-0.72
			c-0.156-1.284,0.315-3.195-0.24-4.08c0.823-12.137,5.877-20.043,12.96-25.92c-1.064,1.673-4.534,3.442-4.08,5.04
			c2.8,0,5.6,0,8.4,0c12.712-7.049,31.612-4.8,49.2-4.8c44.449,0,90.273,0,134.64,0c6.797,0,12.593,0.59,17.521,2.64
			c1.507,0.627,2.916,1.865,4.56,2.16c2.687,0.482,6.071-0.366,8.4,0C751.193,291.125,748.759,289.644,747.681,288.08z"/>
		<path fill-rule="evenodd" clip-rule="evenodd" fill="#999999" d="M759.44,316.64c-78.603-1.118-159.272-0.161-238.8-0.48
			c1.194-4.406,2.414-8.786,5.04-11.76c76.317,0,152.641,0,228.96,0C756.793,307.928,758.452,311.948,759.44,316.64z"/>
		<path fill-rule="evenodd" clip-rule="evenodd" fill="#999999" d="M652.88,336.8c0.7-0.901,1.5-1.701,2.4-2.4
			C654.581,335.301,653.781,336.101,652.88,336.8z"/>
		<path fill-rule="evenodd" clip-rule="evenodd" fill="#929292" d="M662.96,332.24c-0.977,0.388-2.099,1.894-2.88,1.68
			c0.488-0.632,0.825-1.415,1.2-2.16C661.927,331.863,663.728,331.444,662.96,332.24z"/>
		<path fill-rule="evenodd" clip-rule="evenodd" fill="#929292" d="M675.2,332c-2.153,0.489-4.727,1.831-6.479,1.92
			c1.396-0.524,2.366-1.474,3.6-2.16C673.207,331.913,674.711,331.449,675.2,332z"/>
		<path fill-rule="evenodd" clip-rule="evenodd" fill="#909090" d="M550.64,272c59.601,0,119.198,0,178.8,0
			c22.322,3.758,35.404,16.755,38.64,39.6c0,59.122,0,118.239,0,177.36c-3.533,22.547-16.573,35.587-39.119,39.12
			c-59.28,0-118.562,0-177.841,0c-22.411-3.429-35.32-16.359-39.12-38.399c0-59.682,0-119.358,0-179.041
			C515.607,288.487,528.487,275.607,550.64,272z M551.36,280.16c-7.854,0.787-13.44,3.84-18.48,7.44
			c-7.083,5.876-12.137,13.783-12.96,25.92c0.156,1.284-0.315,3.195,0.24,4.08c0,0.24,0,0.48,0,0.72c0,4.48,0,8.96,0,13.44
			c0,3.6,0,7.2,0,10.8c42.64,0,85.28,0,127.92,0c-7.018,10.183-12.448,21.952-17.04,34.56c-7.752-8.916-19.072-14.274-30.48-19.68
			c-9.839-4.663-20.446-9.088-30.72-12.96c-1.383-0.521-2.805-1.496-4.32-1.2c-0.221,12.781,8.007,19.193,16.32,24.24
			c-4.368,0.192-8.593,0.528-11.76,1.92c2.333,11.347,10.951,16.409,21.6,19.44c-5.798,0.362-10.331,1.989-12.96,5.52
			c3.836,6.404,9.37,11.11,18.96,11.76c0.649,0.398,2.951,0.398,3.6,0c0.349,0.132,1.24-0.28,1.2,0.24
			c-3.743,1.667-7.598,4.166-7.44,8.64c0.21,5.953,7.29,8.449,13.92,7.92c-8.708,9.188-22.517,16.88-40.8,15.841
			c-14.003-0.797-24.438-7.207-32.16-13.681c2.594,3.006,5.013,6.188,7.68,9.12c1.26,1.46,2.62,2.82,4.08,4.08
			c16.062,14.419,35.947,25.012,65.76,25.68c0.414,0.398,2.466,0.398,2.88,0c25.83-0.449,45.751-8.652,61.439-19.68
			c15.162-10.657,26.781-25.261,32.16-44.64c9.133,0.018,16.824-2.76,21.601-6.96c0.516-0.453,1.516-1.268,1.2-1.92
			c-0.774,0.346-2.014,0.227-3.12,0.24c-1.601,0-3.2,0-4.8,0c-5.32-0.12-10.003-0.878-13.681-2.64
			c10.272-0.928,17.608-4.792,21.12-12.48c-5.74,2.503-16.023,4.926-23.28,2.16c-4.527-20.112-15.84-33.44-36.72-37.2
			c2.815-1.063,7.545-2.821,10.8-1.2c0.762,0.732-0.466,2.825,0.48,2.88c25.44,0,50.88,0,76.32,0c0-3.6,0-7.2,0-10.8
			c0-4.24,0-8.48,0-12.72c0.921-15.322-4.573-24.227-12.24-30.96c-5.103-3.858-10.854-7.066-18.96-7.92
			C670.161,279.76,609.919,279.76,551.36,280.16z M542.72,509.12c-3.526-0.875-9.538-0.541-13.44-0.239
			C532.756,509.805,538.854,509.387,542.72,509.12z M737.841,509.12c-0.187,0.054-0.474,0.007-0.48,0.24
			c4.208-0.432,10.174,0.894,13.2-0.72C746.455,508.935,741.155,508.035,737.841,509.12z M544.88,510.08
			c-3.947-0.853-10.322-0.557-14.64-0.239C534.111,510.771,540.617,510.343,544.88,510.08z M735.2,510.32
			c4.566-0.442,11.176,0.908,14.4-0.72C744.944,509.984,738.695,508.775,735.2,510.32z M532.4,511.28
			c-0.146,0.014-0.284,0.036-0.24,0.24c5.438,4.357,12.129,8.021,21.6,8.4c9.119,0.364,18.558,0,29.04,0c39.055,0,77.467,0,116.16,0
			c9.738,0,20.023,0.477,28.801-0.24c7.546-0.616,14.004-3.202,18.479-6.72c0.38-0.299,1.355-1.012,1.2-1.681
			C677.149,512.438,602.692,512.43,532.4,511.28z"/>
		<path fill-rule="evenodd" clip-rule="evenodd" fill="#959595" d="M759.44,316.64c0.122,0.838,0.108,1.812,0.48,2.4
			c0,4.24,0,8.48,0,12.72c-25.521,0.16-51.681-0.32-76.801,0.24c-1.857-1.726-5.577-0.536-7.92,0
			c-0.489-0.551-1.993-0.087-2.88-0.24c0.563-1.121,2.44-2.195,1.68-3.84c-4.164,0.956-8.033,2.207-11.04,4.32
			c0.768-0.796-1.033-0.377-1.68-0.48c0.157-0.499,0.896-1.642,0.24-2.16c-1.258,0.982-2.654,1.826-3.84,2.88
			c1.418-1.199-5.028-0.72-7.921-0.72c-42.599,0-87.799,0-129.6,0c0-4.48,0-8.96,0-13.44c0.359-0.521,0.409-1.351,0.48-2.16
			C600.168,316.479,680.838,315.522,759.44,316.64z"/>
		<path fill-rule="evenodd" clip-rule="evenodd" fill="#929292" d="M657.681,332.48c-0.853,0.588-1.424,1.457-2.4,1.92
			c-0.9,0.7-1.7,1.5-2.4,2.4c-1.54,1.979-3.118,3.921-4.8,5.76c-42.64,0-85.28,0-127.92,0c0-3.6,0-7.2,0-10.8
			c41.801,0,87.001,0,129.6,0C652.652,331.76,659.099,331.281,657.681,332.48z"/>
		<path fill-rule="evenodd" clip-rule="evenodd" fill="#929292" d="M673.28,338.72c3.77-1.607,10.442-1.536,9.84-6.72
			c25.12-0.56,51.28-0.08,76.801-0.24c0,3.6,0,7.2,0,10.8c-25.44,0-50.88,0-76.32,0c-0.946-0.055,0.281-2.147-0.48-2.88
			c-3.255-1.622-7.984,0.137-10.8,1.2c-0.24,0-0.48,0-0.72,0c0.044-0.204-0.094-0.226-0.24-0.24
			C671.916,339.916,672.863,339.583,673.28,338.72z"/>
		<path fill-rule="evenodd" clip-rule="evenodd" fill="#9E9E9E" d="M671.601,340.88c-1.522-0.157-3.677,0.316-4.8-0.24
			c0.418,0.018,0.746-0.054,0.96-0.24c0.726,0.554,2.475,0.084,3.6,0.24C671.507,340.654,671.645,340.676,671.601,340.88z"/>
		<path fill-rule="evenodd" clip-rule="evenodd" fill="#959595" d="M519.92,313.52c0.555,0.885,0.084,2.796,0.24,4.08
			C519.605,316.715,520.076,314.804,519.92,313.52z"/>
		<path fill-rule="evenodd" clip-rule="evenodd" fill="#909090" d="M667.761,340.4c1.785-0.615,3.356-1.444,5.52-1.68
			c-0.417,0.863-1.364,1.195-1.92,1.92C670.235,340.485,668.486,340.954,667.761,340.4z"/>
	</g>
</g>
<g id="Calque_2">
	<g>
		<path fill="#FF2B06" d="M649.759,383.654c-0.411,0.432-1.587,1.634-3.228,1.673c-1.64,0.04-15.805-0.009-16.823-0.024
			c-1.019-0.016-2.01-0.919-2.506-1.37c-0.496-0.452-1.376-1.658-1.372-2.738c0.004-1.08-0.035-15.242,0-16.386
			s0.681-2.145,1.222-2.738c0.549-0.602,1.873-1.558,3.238-1.576c0.972-0.013,14.194-0.033,16.115-0.003
			c1.922,0.03,3.347,1.703,3.566,2.006c0.219,0.303,0.799,1.356,0.825,2.292c0.026,0.937,0.022,15.587,0,16.365
			S650.171,383.223,649.759,383.654z"/>
		<path fill-rule="evenodd" clip-rule="evenodd" fill="#FFFFFF" d="M629.332,376.699c-0.264-0.29-0.503-0.605-0.76-0.903
			c0.764,0.641,1.797,1.275,3.184,1.354c1.81,0.103,3.177-0.659,4.039-1.568c-0.656,0.052-1.357-0.195-1.378-0.784
			c-0.016-0.443,0.366-0.69,0.736-0.855c0.004-0.052-0.084-0.011-0.119-0.024c-0.119,0-0.238,0-0.356,0
			c-0.949-0.064-1.497-0.53-1.877-1.164c0.26-0.35,0.709-0.511,1.283-0.546c-1.054-0.3-1.907-0.801-2.138-1.924
			c0.313-0.138,0.732-0.171,1.165-0.19c-0.823-0.5-1.638-1.134-1.616-2.399c0.15-0.029,0.291,0.067,0.427,0.119
			c1.018,0.383,2.067,0.821,3.042,1.283c1.129,0.535,2.25,1.065,3.017,1.948c0.455-1.248,0.992-2.414,1.687-3.421
			c0.167-0.182,0.323-0.375,0.475-0.57c0.089-0.069,0.169-0.148,0.237-0.237c0.097-0.046,0.153-0.132,0.238-0.19
			c0.117-0.104,0.255-0.188,0.38-0.285c0.064,0.051-0.009,0.164-0.023,0.213c-0.037,0.074-0.071,0.151-0.119,0.214
			c0.077,0.021,0.188-0.128,0.285-0.166c0.298-0.209,0.681-0.333,1.093-0.428c0.075,0.163-0.11,0.269-0.166,0.38
			c-0.122,0.068-0.219,0.162-0.356,0.214c0.173-0.009,0.428-0.142,0.642-0.19c0.231-0.053,0.6-0.171,0.783,0
			c0.061,0.513-0.601,0.506-0.974,0.665c-0.214,0.023-0.37,0.105-0.546,0.167c-0.021,0.019-0.054,0.025-0.096,0.024
			c0.111,0.055,0.324,0.008,0.476,0.023c0.023,0,0.047,0,0.071,0c2.066,0.373,3.187,1.692,3.635,3.683
			c0.719,0.274,1.736,0.034,2.305-0.214c-0.348,0.761-1.074,1.144-2.091,1.236c0.364,0.174,0.827,0.25,1.354,0.261
			c0.104,0.04,0.371,0.04,0.475,0c0.109-0.001,0.232,0.01,0.31-0.024c0.031,0.064-0.068,0.146-0.119,0.19
			c-0.473,0.416-1.234,0.691-2.139,0.689c-0.532,1.918-1.683,3.364-3.184,4.419c-1.553,1.091-3.525,1.904-6.082,1.948
			c-0.095,0-0.19,0-0.285,0c-2.951-0.066-4.92-1.115-6.51-2.542C629.611,376.958,629.476,376.824,629.332,376.699z"/>
	</g>
</g>
</svg>
