<?xml version="1.0" encoding="utf-8"?>
<!-- Generator: Adobe Illustrator 15.0.0, SVG Export Plug-In . SVG Version: 6.00 Build 0)  -->
<!DOCTYPE svg PUBLIC "-//W3C//DTD SVG 1.1//EN" "http://www.w3.org/Graphics/SVG/1.1/DTD/svg11.dtd">
<svg version="1.1" xmlns="http://www.w3.org/2000/svg" xmlns:xlink="http://www.w3.org/1999/xlink" x="0px" y="0px" width="1280px"
	 height="800px" viewBox="0 0 1280 800" enable-background="new 0 0 1280 800" xml:space="preserve">
<g id="Calque_1">
</g>
<g id="Calque_2">
	<path fill="none" stroke="#FF2B06" stroke-width="0.5" stroke-miterlimit="10" d="M643.737,397.958
		c-0.411,0.432-1.587,1.633-3.227,1.673c-1.64,0.04-15.806-0.009-16.824-0.024c-1.018-0.016-2.01-0.918-2.505-1.37
		c-0.496-0.452-1.376-1.658-1.373-2.738c0.005-1.08-0.035-15.242,0-16.386c0.036-1.144,0.681-2.144,1.222-2.737
		c0.549-0.602,1.873-1.559,3.238-1.576c0.973-0.013,14.194-0.033,16.115-0.003c1.922,0.03,3.348,1.703,3.566,2.006
		c0.219,0.304,0.799,1.356,0.825,2.293c0.027,0.937,0.022,15.587,0,16.365C644.754,396.238,644.149,397.526,643.737,397.958z"/>
	<g>
		<path fill-rule="evenodd" clip-rule="evenodd" fill="#FF2B06" d="M639.764,393.848c-0.652,0.058-1.412,0.009-2.106,0.025
			c-0.002,0.626-0.179,1.626,0.301,1.805c0.622,0.231,0.785-0.417,0.702-1.103c0.367,0,0.734,0,1.103,0
			c0.06,0.912-0.171,1.553-0.676,1.88c-0.774,0.5-1.917,0.143-2.282-0.526c-0.119-0.218-0.202-0.548-0.226-0.852
			c-0.058-0.748-0.058-1.952,0-2.809c0.061-0.905,0.587-1.534,1.429-1.604C639.719,390.521,639.873,392.132,639.764,393.848z
			 M638.385,391.667c-0.689-0.279-0.825,0.592-0.752,1.303c0.351,0,0.702,0,1.053,0C638.677,392.417,638.75,391.814,638.385,391.667
			z"/>
		<path fill-rule="evenodd" clip-rule="evenodd" fill="#FF2B06" d="M627.581,377.729c0.276,1.027,0.569,2.038,0.827,3.083
			c0.314-0.989,0.546-2.061,0.827-3.083c0.401,0,0.802,0,1.204,0c-0.34,1.166-0.71,2.331-1.078,3.535
			c-0.117,0.381-0.3,0.809-0.351,1.179c-0.142,1.031,0.105,2.074,0,3.208c-0.401,0-0.802,0-1.203,0c-0.071-1.14,0.095-2.201,0-3.234
			c-0.075-0.815-0.427-1.613-0.677-2.356c-0.262-0.778-0.525-1.526-0.777-2.256c-0.014-0.02-0.026-0.041-0.025-0.075
			C626.745,377.729,627.163,377.729,627.581,377.729z"/>
		<path fill-rule="evenodd" clip-rule="evenodd" fill="#FF2B06" d="M631.993,379.659c0.613-0.02,1.169,0.251,1.429,0.777
			c0.255,0.517,0.201,1.567,0.201,2.381c0,1.443-0.021,2.6-1.153,2.858c-0.855,0.195-1.601-0.242-1.855-0.853
			c-0.239-0.574-0.175-1.472-0.175-2.231c0-0.859-0.041-1.672,0.226-2.181C630.888,379.982,631.364,379.679,631.993,379.659z
			 M631.517,381.639c-0.013,0.84-0.188,2.937,0.351,3.083c0.116,0.032,0.354-0.004,0.401-0.025c0.367-0.165,0.275-1.186,0.275-1.955
			c0-0.784,0.215-2.298-0.627-2.105C631.536,380.724,631.523,381.185,631.517,381.639z"/>
		<path fill-rule="evenodd" clip-rule="evenodd" fill="#FF2B06" d="M634.55,379.734c0.342,0,0.685,0,1.027,0
			c0,1.119,0,2.564,0,3.886c0,0.402-0.077,1.024,0.15,1.128c0.348,0.158,0.609-0.296,0.777-0.476
			c0.017-1.504-0.033-3.075,0.025-4.538c0.351,0,0.703,0,1.053,0c0,1.972,0,3.944,0,5.916c-0.359,0-0.719,0-1.078,0
			c0-0.192,0-0.384,0-0.576c-0.283,0.348-1.403,1.108-1.855,0.351c-0.308-0.516-0.15-1.83-0.15-2.732c0-1.09,0-2.08,0-2.883
			C634.499,379.766,634.518,379.745,634.55,379.734z"/>
		<path fill-rule="evenodd" clip-rule="evenodd" fill="#FF2B06" d="M624.823,388.759c1.228,0,2.456,0,3.685,0
			c0,0.368,0,0.736,0,1.103c-0.426,0-0.853,0-1.279,0c0,2.248,0,4.496,0,6.744c-0.393,0-0.786,0-1.178,0c0-2.24,0-4.479,0-6.719
			c-0.368-0.059-0.844-0.008-1.253-0.025c0-0.342,0-0.685,0-1.028C624.796,388.798,624.793,388.763,624.823,388.759z"/>
		<path fill-rule="evenodd" clip-rule="evenodd" fill="#FF2B06" d="M633.697,388.759c0,0.835,0,1.671,0,2.507
			c0.333-0.395,1.067-0.859,1.629-0.451c0.492,0.357,0.426,1.502,0.426,2.507c0,1.292,0.221,2.946-0.551,3.284
			c-0.606,0.265-1.177-0.181-1.504-0.551c0,0.184,0,0.367,0,0.551c-0.351,0-0.702,0-1.053,0c-0.038-2.561-0.045-5.287,0-7.847
			C632.995,388.759,633.347,388.759,633.697,388.759z M634.098,391.642c-0.496,0.076-0.401,0.542-0.401,1.178
			c0,0.834,0,1.947,0,2.632c0.168,0.175,0.452,0.323,0.702,0.226c0.425-0.165,0.276-1.347,0.276-1.98c0-0.87,0.104-1.741-0.251-2.03
			C634.307,391.649,634.208,391.625,634.098,391.642z"/>
		<path fill-rule="evenodd" clip-rule="evenodd" fill="#FF2B06" d="M628.683,390.739c0.351,0,0.702,0,1.053,0
			c0,1.102,0,2.53,0,3.835c0,0.384-0.083,1.049,0.15,1.128c0.389,0.132,0.571-0.318,0.752-0.476c0-1.496,0-2.991,0-4.487
			c0.359,0,0.719,0,1.078,0c0,1.955,0,3.911,0,5.866c-0.351,0-0.702,0-1.053,0c-0.056-0.154-0.011-0.407-0.025-0.602
			c-0.278,0.29-1.061,0.995-1.679,0.551c-0.474-0.339-0.301-1.843-0.301-2.732c0-1.102,0-2.125,0-3.008
			C628.656,390.779,628.654,390.744,628.683,390.739z"/>
	</g>
</g>
</svg>
