<?xml version="1.0" encoding="utf-8"?>
<!-- Generator: Adobe Illustrator 15.0.0, SVG Export Plug-In . SVG Version: 6.00 Build 0)  -->
<!DOCTYPE svg PUBLIC "-//W3C//DTD SVG 1.1//EN" "http://www.w3.org/Graphics/SVG/1.1/DTD/svg11.dtd">
<svg version="1.1" id="Calque_1" xmlns="http://www.w3.org/2000/svg" xmlns:xlink="http://www.w3.org/1999/xlink" x="0px" y="0px"
	 width="30px" height="30px" viewBox="0 0 30 30" enable-background="new 0 0 30 30" xml:space="preserve">
<path fill-rule="evenodd" clip-rule="evenodd" fill="#FF790B" d="M14.365,2.996c3.855-0.268,6.989,1.412,8.851,3.274
	c1.99,1.989,3.515,4.425,3.759,8.244c0.24,3.741-1.318,6.758-3.213,8.731c-2.072,2.157-4.762,3.521-8.245,3.758
	c-3.578,0.244-6.734-1.258-8.73-3.214c-2.13-2.087-3.554-4.33-3.819-8.184C2.586,10.075,5.796,6.153,9.515,4.269
	C10.892,3.572,12.481,3.126,14.365,2.996z M10.06,5.482c0.016,0.247,0.227,0.3,0.182,0.606C10.003,6.622,9.389,6.41,9.15,6.028
	C7.889,6.867,6.837,7.918,5.998,9.18c0.397,0.231,0.607,0.92,0,1.091c-0.266,0.023-0.312-0.173-0.546-0.182
	c-0.574,1.244-1.055,2.583-1.151,4.305c1.835-0.483,1.82,1.687,0,1.212c0.099,1.72,0.578,3.059,1.151,4.305
	c0.219-0.044,0.307-0.22,0.607-0.183c0.173,0.132,0.343,0.264,0.363,0.546c-0.055,0.27-0.335,0.312-0.424,0.545
	c0.845,1.256,1.896,2.309,3.152,3.153c0.214-0.411,0.941-0.607,1.092,0c0.023,0.266-0.173,0.313-0.182,0.545
	c1.248,0.573,2.599,1.04,4.305,1.152c-0.481-1.836,1.69-1.823,1.212,0c1.71-0.108,3.044-0.594,4.306-1.152
	c-0.044-0.216-0.221-0.306-0.184-0.606c0.229-0.544,0.856-0.317,1.092,0.062c1.243-0.858,2.293-1.909,3.152-3.153
	c-0.396-0.23-0.617-0.931,0-1.091c0.263-0.021,0.339,0.147,0.545,0.183c0.56-1.262,1.041-2.597,1.152-4.305
	c-1.822,0.479-1.836-1.694,0-1.212c-0.113-1.707-0.58-3.057-1.152-4.305c-0.245,0.016-0.299,0.226-0.605,0.182
	c-0.537-0.218-0.336-0.873,0.061-1.091c-0.846-1.257-1.897-2.307-3.152-3.152c-0.246,0.382-0.913,0.614-1.092,0
	c-0.021-0.264,0.146-0.339,0.184-0.546c-1.247-0.573-2.587-1.052-4.306-1.151c0.476,1.82-1.695,1.835-1.212,0
	C12.643,4.427,11.304,4.907,10.06,5.482z"/>
<path fill-rule="evenodd" clip-rule="evenodd" fill="#FF790B" d="M15.333,6.573c0.214,0.912,0.123,2.225,0.123,3.577
	c0,1.276-0.228,2.816,0,3.698c0.129,0.502,0.587,0.615,0.605,1.092c0.051,1.244-1.491,1.484-2.122,0.604
	c-0.994-0.044-1.606,0.062-2.606,0.062c-0.761,0-2.173,0.18-2.183-0.605c-0.01-0.843,1.289-0.606,2.123-0.606
	c1.028,0,1.861,0,2.728,0c0.185-0.099,0.262-0.305,0.485-0.364c0.08-2.448-0.158-5.211,0.122-7.457
	C14.857,6.439,15.085,6.439,15.333,6.573z"/>
</svg>
